<mxfile host="app.diagrams.net" agent="Mozilla/5.0 (Windows NT 10.0; Win64; x64; rv:142.0) Gecko/20100101 Firefox/142.0" version="28.2.2">
  <diagram name="Página-1" id="LQeLigVJHoN_diJW79cl">
    <mxGraphModel dx="403" dy="550" grid="1" gridSize="10" guides="1" tooltips="1" connect="1" arrows="1" fold="1" page="1" pageScale="1" pageWidth="827" pageHeight="1169" math="0" shadow="0">
      <root>
        <mxCell id="0" />
        <mxCell id="1" parent="0" />
        <mxCell id="ru4B8mah-PQF-TwToz5s-1" value="&lt;div&gt;Usuario del&amp;nbsp;&lt;/div&gt;&lt;div&gt;guante inteligente&lt;/div&gt;" style="shape=umlActor;verticalLabelPosition=bottom;verticalAlign=top;html=1;outlineConnect=0;" vertex="1" parent="1">
          <mxGeometry x="180" y="220" width="30" height="60" as="geometry" />
        </mxCell>
        <mxCell id="ru4B8mah-PQF-TwToz5s-2" value="" style="rounded=0;whiteSpace=wrap;html=1;" vertex="1" parent="1">
          <mxGeometry x="250" y="190" width="360" height="190" as="geometry" />
        </mxCell>
        <mxCell id="ru4B8mah-PQF-TwToz5s-9" style="edgeStyle=orthogonalEdgeStyle;rounded=0;orthogonalLoop=1;jettySize=auto;html=1;entryX=0;entryY=0.5;entryDx=0;entryDy=0;dashed=1;" edge="1" parent="1" source="ru4B8mah-PQF-TwToz5s-3" target="ru4B8mah-PQF-TwToz5s-4">
          <mxGeometry relative="1" as="geometry" />
        </mxCell>
        <mxCell id="ru4B8mah-PQF-TwToz5s-12" value="&lt;font style=&quot;font-size: 9px;&quot;&gt;include&lt;/font&gt;" style="edgeLabel;html=1;align=center;verticalAlign=middle;resizable=0;points=[];" vertex="1" connectable="0" parent="ru4B8mah-PQF-TwToz5s-9">
          <mxGeometry x="-0.3764" y="-2" relative="1" as="geometry">
            <mxPoint x="8" y="-2" as="offset" />
          </mxGeometry>
        </mxCell>
        <mxCell id="ru4B8mah-PQF-TwToz5s-3" value="Calibrar Guante" style="rounded=1;whiteSpace=wrap;html=1;arcSize=50;" vertex="1" parent="1">
          <mxGeometry x="280" y="230" width="120" height="40" as="geometry" />
        </mxCell>
        <mxCell id="ru4B8mah-PQF-TwToz5s-4" value="Capturar Datos del Guante" style="rounded=1;whiteSpace=wrap;html=1;arcSize=50;" vertex="1" parent="1">
          <mxGeometry x="470" y="225" width="130" height="50" as="geometry" />
        </mxCell>
        <mxCell id="ru4B8mah-PQF-TwToz5s-7" style="edgeStyle=orthogonalEdgeStyle;rounded=0;orthogonalLoop=1;jettySize=auto;html=1;exitX=0.5;exitY=0;exitDx=0;exitDy=0;entryX=0.5;entryY=1;entryDx=0;entryDy=0;dashed=1;" edge="1" parent="1" source="ru4B8mah-PQF-TwToz5s-5" target="ru4B8mah-PQF-TwToz5s-3">
          <mxGeometry relative="1" as="geometry" />
        </mxCell>
        <mxCell id="ru4B8mah-PQF-TwToz5s-10" value="&lt;font style=&quot;font-size: 9px;&quot;&gt;extend&lt;/font&gt;" style="edgeLabel;html=1;align=center;verticalAlign=middle;resizable=0;points=[];" vertex="1" connectable="0" parent="ru4B8mah-PQF-TwToz5s-7">
          <mxGeometry x="-0.2414" relative="1" as="geometry">
            <mxPoint as="offset" />
          </mxGeometry>
        </mxCell>
        <mxCell id="ru4B8mah-PQF-TwToz5s-5" value="Manejar Error de Conexión" style="rounded=1;whiteSpace=wrap;html=1;arcSize=50;" vertex="1" parent="1">
          <mxGeometry x="280" y="330" width="120" height="40" as="geometry" />
        </mxCell>
        <mxCell id="ru4B8mah-PQF-TwToz5s-6" value="Manejar Datos Inconsistentes" style="rounded=1;whiteSpace=wrap;html=1;arcSize=50;" vertex="1" parent="1">
          <mxGeometry x="410" y="330" width="120" height="40" as="geometry" />
        </mxCell>
        <mxCell id="ru4B8mah-PQF-TwToz5s-8" style="rounded=0;orthogonalLoop=1;jettySize=auto;html=1;exitX=0.5;exitY=0;exitDx=0;exitDy=0;entryX=0.941;entryY=0.897;entryDx=0;entryDy=0;entryPerimeter=0;dashed=1;" edge="1" parent="1" source="ru4B8mah-PQF-TwToz5s-6" target="ru4B8mah-PQF-TwToz5s-3">
          <mxGeometry relative="1" as="geometry" />
        </mxCell>
        <mxCell id="ru4B8mah-PQF-TwToz5s-11" value="&lt;font style=&quot;font-size: 9px;&quot;&gt;extend&lt;/font&gt;" style="edgeLabel;html=1;align=center;verticalAlign=middle;resizable=0;points=[];" vertex="1" connectable="0" parent="ru4B8mah-PQF-TwToz5s-8">
          <mxGeometry x="-0.1209" y="1" relative="1" as="geometry">
            <mxPoint as="offset" />
          </mxGeometry>
        </mxCell>
        <mxCell id="ru4B8mah-PQF-TwToz5s-13" value="" style="endArrow=none;html=1;rounded=0;entryX=0;entryY=0.5;entryDx=0;entryDy=0;" edge="1" parent="1" source="ru4B8mah-PQF-TwToz5s-1" target="ru4B8mah-PQF-TwToz5s-3">
          <mxGeometry width="50" height="50" relative="1" as="geometry">
            <mxPoint x="240" y="430" as="sourcePoint" />
            <mxPoint x="290" y="380" as="targetPoint" />
          </mxGeometry>
        </mxCell>
      </root>
    </mxGraphModel>
  </diagram>
</mxfile>
